<svg width="136" height="136" viewBox="0 0 136 136" fill="none" xmlns="http://www.w3.org/2000/svg">
<rect width="136" height="136" rx="68" fill="#FDFDFD"/>
<path d="M42.7112 40.917C42.2112 36.917 48.2112 29.417 54.2112 30.417C56.7112 26.917 65.2109 26.917 67.7112 32.417V101.417C67.7112 101.417 64.7109 108.417 57.7112 108.917C50.7115 109.417 46.7109 100.917 46.7109 100.917C43.7107 101.417 32.7112 98.417 36.7112 86.417C34.711 86.417 23.2117 76.917 32.7112 69.417M42.7112 40.917C42.7112 40.917 42.7112 43.417 44.7112 45.917M42.7112 40.917C33.7112 45.417 39.2112 53.417 39.2112 53.417C25.2112 55.917 32.2115 68.417 32.7112 69.417M32.7112 69.417C32.7112 69.417 36.7112 73.417 39.2112 72.417M57.7112 98.417V61.917C57.7112 61.917 57.7112 56.417 52.2112 56.417C46.7109 56.417 46.7109 61.917 46.7109 61.917M46.7109 61.917C46.7109 81.417 41.2109 81.417 41.2109 81.417M46.7109 61.917V100M49.7112 39.917C52.3778 40.5837 57.9112 43.017 58.7112 47.417M68 101.417C68 101.417 71.0003 108.417 78 108.917C84.9997 109.417 89.0003 100.917 89.0003 100.917C92.0005 101.417 103 98.417 99 86.417C101 86.417 112.5 76.917 103 69.417M68 32.417C70.5003 26.917 79 26.917 81.5 30.417C87.5 29.417 93.5 36.917 93 40.917M93 40.917C93 40.917 93 43.417 91 45.917M93 40.917C102 45.417 96.5 53.417 96.5 53.417C110.5 55.917 103.5 68.417 103 69.417M103 69.417C103 69.417 99 73.417 96.5 72.417M78 98.417V61.917C78 61.917 78 56.417 83.5 56.417C89.0003 56.417 89.0003 61.917 89.0003 61.917M89.0003 61.917C89.0003 81.417 94.5003 81.417 94.5003 81.417M89.0003 61.917V100M86 39.917C83.3334 40.5837 77.8 43.017 77 47.417" stroke="#14213D" stroke-width="4" stroke-linecap="round" stroke-linejoin="round"/>
</svg>
